<svg width="752" height="171" viewBox="0 0 752 171" fill="none" xmlns="http://www.w3.org/2000/svg">
<g clip-path="url(#clip0_12_2)">
<rect width="752" height="171" fill="white"/>
<path d="M111.265 139.95C104.165 139.95 97.9152 138.35 92.5152 135.15C87.2152 131.95 83.1152 127.4 80.2152 121.5C77.3152 115.6 75.8652 108.6 75.8652 100.5C75.8652 92.8 77.1152 85.4 79.6152 78.3C82.1152 71.2 85.7152 64.85 90.4152 59.25C95.1152 53.65 100.765 49.2 107.365 45.9C113.965 42.6 121.415 40.95 129.715 40.95C135.915 40.95 141.015 41.9 145.015 43.8C149.015 45.7 151.015 48.5 151.015 52.2C151.015 54 150.515 55.8 149.515 57.6C148.615 59.3 147.415 60.75 145.915 61.95C144.415 63.15 142.865 63.75 141.265 63.75C140.265 63.75 139.465 63.5 138.865 63C136.165 61.2 133.515 59.9 130.915 59.1C128.315 58.2 125.315 57.75 121.915 57.75C114.815 57.75 108.815 59.4 103.915 62.7C99.0152 65.9 95.2652 70.15 92.6652 75.45C90.1652 80.75 88.9152 86.5 88.9152 92.7C88.9152 98.7 90.0652 104 92.3652 108.6C94.6652 113.2 97.8652 116.8 101.965 119.4C106.065 122 110.865 123.3 116.365 123.3C120.765 123.3 125.015 122.45 129.115 120.75C133.315 118.95 137.015 116.5 140.215 113.4C141.615 112.1 143.015 111.45 144.415 111.45C145.615 111.45 146.465 111.95 146.965 112.95C147.465 113.95 147.715 114.95 147.715 115.95C147.715 117.65 147.215 119.6 146.215 121.8C145.215 123.9 143.665 126 141.565 128.1C137.865 131.8 133.315 134.7 127.915 136.8C122.515 138.9 116.965 139.95 111.265 139.95ZM180.839 139.95C173.939 139.95 168.389 138.1 164.189 134.4C160.089 130.6 158.039 125.05 158.039 117.75C158.039 114.35 158.489 111.05 159.389 107.85C160.389 104.65 161.689 101.65 163.289 98.85C161.689 99.85 160.489 100.35 159.689 100.35C158.489 100.35 157.639 99.7 157.139 98.4C156.739 97 156.539 95.65 156.539 94.35C156.539 92.05 156.989 90.25 157.889 88.95C158.889 87.55 159.839 86.5 160.739 85.8C162.839 84 166.139 82.05 170.639 79.95C175.139 77.75 180.539 76.65 186.839 76.65C195.439 76.65 202.089 79.05 206.789 83.85C211.589 88.65 213.989 95.35 213.989 103.95C213.989 110.65 212.589 116.75 209.789 122.25C206.989 127.65 203.089 131.95 198.089 135.15C193.189 138.35 187.439 139.95 180.839 139.95ZM185.489 124.65C190.489 124.65 194.689 123.1 198.089 120C201.589 116.8 203.339 112.6 203.339 107.4C203.339 102 201.589 98.15 198.089 95.85C194.589 93.55 190.539 92.4 185.939 92.4C183.839 92.4 181.939 92.6 180.239 93C178.539 93.4 176.939 93.9 175.439 94.5C174.039 96.5 172.789 98.75 171.689 101.25C170.589 103.75 170.039 106.5 170.039 109.5C170.039 114.5 171.539 118.3 174.539 120.9C177.539 123.4 181.189 124.65 185.489 124.65ZM233.948 139.65C230.348 139.65 228.748 138.45 229.148 136.05C230.248 131.75 231.148 127.4 231.848 123C232.648 118.5 233.048 114.2 233.048 110.1C233.048 104.8 232.698 100.95 231.998 98.55C231.398 96.05 230.548 94.35 229.448 93.45C228.348 92.45 226.998 91.7 225.398 91.2C224.698 90.9 224.048 90.5 223.448 90C222.948 89.5 222.698 88.8 222.698 87.9C222.698 86.5 223.248 84.95 224.348 83.25C225.448 81.55 226.998 80.1 228.998 78.9C231.098 77.6 233.448 76.95 236.048 76.95C239.448 76.95 241.798 78.15 243.098 80.55C244.398 82.85 245.048 85.9 245.048 89.7C245.048 92.2 244.798 95 244.298 98.1C243.798 101.2 243.298 104 242.798 106.5L243.248 106.65C245.248 101.35 247.648 96.45 250.448 91.95C253.348 87.35 256.698 83.65 260.498 80.85C264.298 78.05 268.698 76.65 273.698 76.65C278.998 76.65 283.048 78.25 285.848 81.45C288.648 84.65 290.048 88.65 290.048 93.45C290.048 95.45 289.798 97.35 289.298 99.15C288.898 100.95 288.448 102.7 287.948 104.4C287.448 106 286.998 107.65 286.598 109.35C286.298 111.05 286.148 112.75 286.148 114.45C286.148 120.15 288.848 124 294.248 126C295.648 126.6 296.348 127.5 296.348 128.7C296.348 129.6 296.048 130.9 295.448 132.6C294.848 134.3 293.748 135.9 292.148 137.4C290.548 138.8 288.198 139.5 285.098 139.5C281.098 139.5 277.998 138.1 275.798 135.3C273.598 132.4 272.498 128.75 272.498 124.35C272.498 121.85 272.748 119.35 273.248 116.85C273.848 114.25 274.448 111.85 275.048 109.65C275.448 107.95 275.798 106.3 276.098 104.7C276.498 103 276.698 101.5 276.698 100.2C276.698 95.6 274.298 93.3 269.498 93.3C265.398 93.3 261.798 94.85 258.698 97.95C255.598 100.95 252.948 104.75 250.748 109.35C248.548 113.95 246.748 118.6 245.348 123.3V126.9C245.348 130.6 244.298 133.65 242.198 136.05C240.198 138.45 237.448 139.65 233.948 139.65ZM327.868 139.95C321.768 139.95 317.368 137.95 314.668 133.95C312.068 129.85 310.768 124.6 310.768 118.2C310.768 115.9 310.868 113.65 311.068 111.45C311.368 109.25 311.668 107.05 311.968 104.85C312.268 102.65 312.568 100.5 312.868 98.4C313.168 96.3 313.418 94.3 313.618 92.4C311.518 93 309.418 93.3 307.318 93.3C305.118 93.3 304.018 92.4 304.018 90.6C304.018 88.7 304.868 86.4 306.568 83.7C308.268 80.9 310.368 78.15 312.868 75.45C315.468 72.75 318.018 70.5 320.518 68.7C323.118 66.8 325.318 65.85 327.118 65.85C329.318 65.85 330.418 67.75 330.418 71.55C330.418 72.55 330.318 73.6 330.118 74.7C330.018 75.7 329.868 76.75 329.668 77.85C331.568 77.45 333.468 77.1 335.368 76.8C337.368 76.5 339.268 76.35 341.068 76.35C343.368 76.35 345.118 76.75 346.318 77.55C347.618 78.35 348.268 79.9 348.268 82.2C348.268 84.6 347.668 87 346.468 89.4C345.368 91.8 344.118 93 342.718 93C342.418 93 341.918 92.95 341.218 92.85C340.518 92.75 339.668 92.6 338.668 92.4C337.368 92.1 335.718 91.8 333.718 91.5C331.718 91.2 329.318 91.05 326.518 91.05C325.818 94.15 325.168 97.35 324.568 100.65C324.068 103.85 323.818 106.75 323.818 109.35C323.818 115.15 325.268 119.1 328.168 121.2C331.068 123.3 335.268 124.35 340.768 124.35C342.468 124.35 343.668 124.65 344.368 125.25C345.068 125.75 345.418 126.7 345.418 128.1C345.418 131.4 343.718 134.2 340.318 136.5C336.918 138.8 332.768 139.95 327.868 139.95ZM378.59 139.95C370.99 139.95 365.04 137.8 360.74 133.5C356.54 129.1 354.44 123 354.44 115.2C354.44 108.1 355.99 101.65 359.09 95.85C362.19 90.05 366.34 85.45 371.54 82.05C376.84 78.55 382.64 76.8 388.94 76.8C394.94 76.8 399.74 78.3 403.34 81.3C406.94 84.2 408.74 88.1 408.74 93C408.74 96.9 407.54 100.5 405.14 103.8C402.74 107.1 399.54 109.75 395.54 111.75C391.54 113.65 387.09 114.6 382.19 114.6C376.19 114.6 371.29 113.25 367.49 110.55C367.59 115.15 369.14 118.85 372.14 121.65C375.24 124.45 379.19 125.85 383.99 125.85C386.89 125.85 389.84 125.35 392.84 124.35C395.94 123.25 398.59 121.8 400.79 120C402.19 118.8 403.49 118.2 404.69 118.2C405.69 118.2 406.49 118.55 407.09 119.25C407.79 119.85 408.14 120.65 408.14 121.65C408.14 123.85 406.24 126.75 402.44 130.35C395.74 136.75 387.79 139.95 378.59 139.95ZM380.84 104.7C384.44 104.7 387.44 103.95 389.84 102.45C392.24 100.95 393.44 99.05 393.44 96.75C393.44 94.85 392.64 93.4 391.04 92.4C389.44 91.3 387.24 90.75 384.44 90.75C380.74 90.75 377.49 91.75 374.69 93.75C371.99 95.65 370.04 98.35 368.84 101.85C370.24 102.75 372.04 103.45 374.24 103.95C376.44 104.45 378.64 104.7 380.84 104.7ZM425.925 139.5C422.625 139.5 419.875 138.65 417.675 136.95C415.575 135.25 414.525 132.85 414.525 129.75C414.525 126.55 415.475 123.95 417.375 121.95C419.375 119.85 421.175 118.8 422.775 118.8C423.875 118.8 424.675 119.4 425.175 120.6C425.775 121.7 426.525 122.45 427.425 122.85C428.325 123.25 429.225 123.45 430.125 123.45C432.725 123.45 435.025 122.2 437.025 119.7C439.025 117.2 440.875 113.8 442.575 109.5C440.975 105.1 438.725 101.35 435.825 98.25C432.925 95.05 429.375 93.45 425.175 93.45C424.575 93.45 424.075 93.5 423.675 93.6C423.275 93.6 422.925 93.6 422.625 93.6C421.925 93.6 421.175 93.15 420.375 92.25C419.575 91.25 419.175 89.65 419.175 87.45C419.175 83.95 420.325 81.35 422.625 79.65C424.925 77.95 427.475 77.1 430.275 77.1C434.475 77.1 438.325 78.95 441.825 82.65C445.325 86.25 448.175 90.85 450.375 96.45C452.275 92.95 454.525 89.75 457.125 86.85C459.825 83.85 462.675 81.5 465.675 79.8C468.775 78 471.775 77.1 474.675 77.1C477.375 77.1 479.275 77.8 480.375 79.2C481.475 80.5 482.025 82 482.025 83.7C482.025 85.3 481.675 86.95 480.975 88.65C480.275 90.35 479.425 91.8 478.425 93C477.425 94.2 476.375 94.8 475.275 94.8C474.675 94.8 473.975 94.65 473.175 94.35C472.475 94.15 471.625 93.95 470.625 93.75C469.625 93.45 468.575 93.3 467.475 93.3C464.975 93.3 462.775 94.25 460.875 96.15C459.075 98.05 456.875 101.5 454.275 106.5C455.375 109.2 456.825 111.85 458.625 114.45C460.425 116.95 462.575 119.05 465.075 120.75C467.675 122.45 470.625 123.3 473.925 123.3C474.525 123.3 475.075 123.3 475.575 123.3C476.075 123.2 476.525 123.15 476.925 123.15C477.525 123.15 477.975 123.4 478.275 123.9C478.675 124.3 478.875 125.25 478.875 126.75C478.875 128.55 478.525 130.45 477.825 132.45C477.125 134.35 475.875 136 474.075 137.4C472.275 138.8 469.675 139.5 466.275 139.5C462.575 139.5 459.475 138.55 456.975 136.65C454.475 134.75 452.425 132.25 450.825 129.15C449.325 126.05 448.025 122.8 446.925 119.4C444.225 125.2 441.325 130 438.225 133.8C435.225 137.6 431.125 139.5 425.925 139.5ZM510.973 139.95C504.873 139.95 500.473 137.95 497.773 133.95C495.173 129.85 493.873 124.6 493.873 118.2C493.873 115.9 493.973 113.65 494.173 111.45C494.473 109.25 494.773 107.05 495.073 104.85C495.373 102.65 495.673 100.5 495.973 98.4C496.273 96.3 496.523 94.3 496.723 92.4C494.623 93 492.523 93.3 490.423 93.3C488.223 93.3 487.123 92.4 487.123 90.6C487.123 88.7 487.973 86.4 489.673 83.7C491.373 80.9 493.473 78.15 495.973 75.45C498.573 72.75 501.123 70.5 503.623 68.7C506.223 66.8 508.423 65.85 510.223 65.85C512.423 65.85 513.523 67.75 513.523 71.55C513.523 72.55 513.423 73.6 513.223 74.7C513.123 75.7 512.973 76.75 512.773 77.85C514.673 77.45 516.573 77.1 518.473 76.8C520.473 76.5 522.373 76.35 524.173 76.35C526.473 76.35 528.223 76.75 529.423 77.55C530.723 78.35 531.373 79.9 531.373 82.2C531.373 84.6 530.773 87 529.573 89.4C528.473 91.8 527.223 93 525.823 93C525.523 93 525.023 92.95 524.323 92.85C523.623 92.75 522.773 92.6 521.773 92.4C520.473 92.1 518.823 91.8 516.823 91.5C514.823 91.2 512.423 91.05 509.623 91.05C508.923 94.15 508.273 97.35 507.673 100.65C507.173 103.85 506.923 106.75 506.923 109.35C506.923 115.15 508.373 119.1 511.273 121.2C514.173 123.3 518.373 124.35 523.873 124.35C525.573 124.35 526.773 124.65 527.473 125.25C528.173 125.75 528.523 126.7 528.523 128.1C528.523 131.4 526.823 134.2 523.423 136.5C520.023 138.8 515.873 139.95 510.973 139.95ZM570.217 139.95C560.717 139.95 553.667 138.45 549.067 135.45C544.567 132.35 542.317 126.6 542.317 118.2C542.317 116.5 542.417 114.45 542.617 112.05C542.917 109.65 543.317 106.75 543.817 103.35C544.617 98.45 545.217 94.1 545.617 90.3C546.017 86.4 546.217 82.15 546.217 77.55C546.217 74.55 546.117 71.65 545.917 68.85C545.817 66.05 545.567 63.4 545.167 60.9C543.667 61.2 542.667 61.35 542.167 61.35C541.367 61.35 540.817 61.2 540.517 60.9C540.217 60.5 540.067 59.8 540.067 58.8C540.067 56.7 540.317 54.65 540.817 52.65C541.317 50.55 542.017 48.85 542.917 47.55C544.617 45.15 547.217 43.75 550.717 43.35C553.417 43.05 556.717 42.75 560.617 42.45C564.617 42.15 568.667 41.95 572.767 41.85C576.967 41.65 580.717 41.55 584.017 41.55C593.217 41.55 598.667 41.75 600.367 42.15C602.967 42.55 604.267 43.95 604.267 46.35C604.267 49.35 603.217 52.1 601.117 54.6C600.017 56.1 598.917 57.2 597.817 57.9C596.717 58.5 595.167 58.75 593.167 58.65C588.767 58.35 584.917 58.15 581.617 58.05C578.317 57.95 576.017 57.9 574.717 57.9C572.417 57.9 570.017 57.95 567.517 58.05C565.117 58.15 562.667 58.3 560.167 58.5C560.167 62 560.017 65.75 559.717 69.75C559.417 73.75 559.017 77.95 558.517 82.35C563.117 82.05 568.317 81.85 574.117 81.75C579.917 81.55 585.067 81.45 589.567 81.45C591.567 81.45 592.917 81.65 593.617 82.05C594.417 82.45 594.817 83.5 594.817 85.2C594.817 86.8 594.367 88.6 593.467 90.6C592.667 92.5 591.567 94.15 590.167 95.55C589.567 96.15 588.917 96.65 588.217 97.05C587.517 97.35 586.567 97.45 585.367 97.35C581.067 97.15 576.167 97 570.667 96.9C565.267 96.8 560.517 96.8 556.417 96.9C556.017 99.2 555.717 101.3 555.517 103.2C555.317 105.1 555.217 106.8 555.217 108.3C555.217 113.8 556.617 117.65 559.417 119.85C562.217 122.05 566.817 123.15 573.217 123.15C577.117 123.15 580.867 122.8 584.467 122.1C588.167 121.4 591.917 120.1 595.717 118.2C597.117 117.4 598.167 117 598.867 117C599.967 117 601.017 117.8 602.017 119.4C603.117 120.9 603.667 122.55 603.667 124.35C603.667 126.55 602.817 128.65 601.117 130.65C599.517 132.55 597.367 134.2 594.667 135.6C591.567 137 587.867 138.05 583.567 138.75C579.267 139.55 574.817 139.95 570.217 139.95ZM630.577 139.95C624.577 139.95 619.827 137.95 616.327 133.95C612.927 129.95 611.227 124.5 611.227 117.6C611.227 112.5 612.027 107.5 613.627 102.6C615.327 97.7 617.677 93.3 620.677 89.4C623.677 85.5 627.177 82.4 631.177 80.1C635.177 77.8 639.527 76.65 644.227 76.65C647.227 76.65 649.877 77.1 652.177 78C654.577 78.9 656.677 80.05 658.477 81.45C658.377 74.65 658.027 68.55 657.427 63.15C656.827 57.75 655.377 52.75 653.077 48.15C652.677 47.35 652.327 46.65 652.027 46.05C651.827 45.35 651.727 44.7 651.727 44.1C651.727 42.7 652.277 41.4 653.377 40.2C654.577 39 656.027 38 657.727 37.2C659.427 36.4 661.027 36 662.527 36C665.227 36 667.227 37.2 668.527 39.6C669.927 41.9 670.827 45.1 671.227 49.2C671.627 53.2 671.827 57.8 671.827 63C671.827 70.6 671.477 77.45 670.777 83.55C670.077 89.65 669.427 95 668.827 99.6C668.427 102.6 668.077 105.2 667.777 107.4C667.477 109.6 667.327 111.4 667.327 112.8C667.327 119.9 670.377 124.1 676.477 125.4C678.077 125.7 678.877 126.75 678.877 128.55C678.877 129.65 678.527 131.05 677.827 132.75C677.227 134.45 676.077 136 674.377 137.4C672.677 138.7 670.227 139.35 667.027 139.35C662.727 139.35 659.827 137.9 658.327 135C656.827 132.1 656.077 127.7 656.077 121.8C653.277 126.9 649.727 131.2 645.427 134.7C641.127 138.2 636.177 139.95 630.577 139.95ZM635.227 123.9C638.027 123.9 640.827 123 643.627 121.2C646.427 119.4 648.927 116.95 651.127 113.85C652.427 111.95 653.577 109.8 654.577 107.4C655.677 104.9 656.677 102.4 657.577 99.9C652.477 95.3 646.827 93 640.627 93C635.227 93 630.927 94.65 627.727 97.95C624.527 101.15 622.927 105.15 622.927 109.95C622.927 114.05 624.127 117.4 626.527 120C628.927 122.6 631.827 123.9 635.227 123.9Z" fill="black"/>
</g>
<defs>
<clipPath id="clip0_12_2">
<rect width="752" height="171" fill="white"/>
</clipPath>
</defs>
</svg>
